<svg width="70" height="60" viewBox="0 0 70 60" fill="none" xmlns="http://www.w3.org/2000/svg">
<path d="M69.2868 12.9447C69.2868 12.9447 68.6043 7.06416 66.4998 4.48374C63.8352 1.08761 60.8513 1.06629 59.4862 0.869025C49.6987 5.56112e-07 34.9978 0 34.9978 0H34.9716C34.9716 0 20.275 5.56112e-07 10.4832 0.869025C9.1137 1.07162 6.13413 1.08761 3.46959 4.48374C1.36509 7.06416 0.695669 12.9447 0.695669 12.9447C0.695669 12.9447 0 19.8436 0 26.7585V33.2255C0 40.1244 0.695669 47.0393 0.695669 47.0393C0.695669 47.0393 1.37821 52.9198 3.46959 55.5056C6.13413 58.9017 9.63435 58.7898 11.1963 59.1523C16.8011 59.8027 35.0022 60 35.0022 60C35.0022 60 49.7162 59.968 59.5037 59.115C60.8732 58.9177 63.8527 58.8964 66.5173 55.5003C68.6218 52.9198 69.3043 47.0339 69.3043 47.0339C69.3043 47.0339 70 40.1351 70 33.2202V26.7532C69.9869 19.8543 69.2912 12.9394 69.2912 12.9394L69.2868 12.9447ZM27.748 41.0681V17.0926L46.6579 29.1203L27.748 41.0681Z" fill="white"/>
</svg>
